
<svg width="90px" height="85px" viewBox="1322 285 90 85" version="1.1" xmlns="http://www.w3.org/2000/svg" xmlns:xlink="http://www.w3.org/1999/xlink">
    <!-- Generator: Sketch 40.3 (33839) - http://www.bohemiancoding.com/sketch -->
    <desc>Created with Sketch.</desc>
    <defs>
        <rect id="path-1" x="0" y="0" width="83.0188679" height="84"></rect>
        <mask id="mask-2" maskContentUnits="userSpaceOnUse" maskUnits="objectBoundingBox" x="0" y="0" width="83.0188679" height="84" fill="white">
            <use xlink:href="#path-1"></use>
        </mask>
    </defs>
    <g id="windy" stroke="none" stroke-width="1" fill="none" fill-rule="evenodd" transform="translate(1322.000000, 285.000000)">
        <g id="Fill-1-+-Rectangle-1-Copy-6" transform="translate(4.981132, 0.000000)" stroke="#2B2B2B" stroke-width="2" opacity="0.0229127799">
            <use id="Rectangle-1" mask="url(#mask-2)" xlink:href="#path-1"></use>
        </g>
        <g id="Imported-Layers" transform="translate(0.000000, 5.880000)">
            <path d="M8.677747,27.9812 L39.3098488,27.9812 C40.1669532,27.9812 40.8682204,27.0902 40.8682204,26.0012 C40.8682204,24.9122 40.1669532,24.0212 39.3098488,24.0212 L8.677747,24.0212 C7.8191997,24.0212 7.11793249,24.9122 7.11793249,26.0012 C7.11793249,27.0902 7.8191997,27.9812 8.677747,27.9812" id="Fill-4" fill="#FFFFFF"></path>
            <g id="Group">
                <path d="M2.15186123,36.798 L61.7249432,36.798 C62.5820475,36.798 63.2833147,35.9433957 63.2833147,34.8971208 C63.2833147,33.8526044 62.5820475,32.998 61.7249432,32.998 L2.15186123,32.998 C1.29475687,32.998 0.593489667,33.8526044 0.593489667,34.8971208 C0.593489667,35.9433957 1.29475687,36.798 2.15186123,36.798" id="Fill-1" fill="#FFFFFF"></path>
                <path d="M61.057783,34.8140625 C69.3415837,34.8140625 75.4960259,35.0446891 80.8979953,31.9003125 C102.085397,19.5675566 64.1131973,1.69101942 57.2505896,0.525 C42.6793193,-1.95079129 38.5226147,21.39375 56.2323113,21.39375" id="Path-2" stroke="#FFFFFF" stroke-width="4"></path>
            </g>
            <g id="Group-2" transform="translate(14.113208, 42.840000)">
                <path d="M1.91393238,5.19819998 L47.6117356,5.19819998 C48.46884,5.19819998 49.1701072,4.15540276 49.1701072,2.87872716 C49.1701072,1.60419722 48.46884,0.5614 47.6117356,0.5614 L1.91393238,0.5614 C1.05682801,0.5614 0.354117873,1.60419722 0.354117873,2.87872716 C0.354117873,4.15540276 1.05682801,5.19819998 1.91393238,5.19819998" id="Fill-2" fill="#FFFFFF"></path>
                <path d="M47.6010451,23.5177384 C53.5773478,23.5177384 58.0174364,23.6559328 61.9146576,21.7717833 C77.2001927,14.381843 49.805357,3.67000019 44.8543663,2.97130689 C34.3420031,1.48778204 31.3431713,15.4761207 44.119735,15.4761207" id="Path-2" stroke="#FFFFFF" stroke-width="5" transform="translate(51.100277, 13.190565) scale(1, -1) translate(-51.100277, -13.190565) "></path>
            </g>
        </g>
    </g>
</svg>
